<svg xmlns="http://www.w3.org/2000/svg" viewBox="0 0 24 24" role="img" aria-label="DJ booth">
  <title>Booth / deck (filled)</title>
  <!-- EL-073 domain icon. Filled variant = active/selected. Solid console with
       the two jog wheels knocked out (fill-rule evenodd), spindle dots re-added.
       currentColor so it inherits the token colour in use. -->
  <path fill="currentColor" fill-rule="evenodd" d="M4.5 6 H19.5 A2.5 2.5 0 0 1 22 8.5 V16.5 A2.5 2.5 0 0 1 19.5 19 H4.5 A2.5 2.5 0 0 1 2 16.5 V8.5 A2.5 2.5 0 0 1 4.5 6 Z M10 12.5 A3 3 0 1 0 4 12.5 A3 3 0 1 0 10 12.5 Z M20 12.5 A3 3 0 1 0 14 12.5 A3 3 0 1 0 20 12.5 Z"/>
  <g fill="currentColor">
    <circle cx="7" cy="12.5" r="0.9"/>
    <circle cx="17" cy="12.5" r="0.9"/>
  </g>
</svg>
